<?xml version="1.0" standalone="no"?>
<!DOCTYPE svg PUBLIC "-//W3C//DTD SVG 20010904//EN"
 "http://www.w3.org/TR/2001/REC-SVG-20010904/DTD/svg10.dtd">
<svg version="1.0" xmlns="http://www.w3.org/2000/svg"
 width="210.000000pt" height="210.000000pt" viewBox="0 0 210.000000 210.000000"
 preserveAspectRatio="xMidYMid meet">
<metadata>
Created by potrace 1.11, written by Peter Selinger 2001-2013
</metadata>
<g transform="translate(0.000000,210.000000) scale(0.100000,-0.100000)"
fill="#000000" stroke="none">
<path d="M530 1575 c-283 -283 -517 -520 -519 -526 -5 -15 1019 -1039 1039
-1039 17 0 1040 1019 1040 1035 0 6 -58 70 -130 142 -71 73 -130 137 -130 142
0 6 -5 11 -12 11 -18 0 -553 541 -553 559 0 9 -7 16 -15 16 -9 0 -56 39 -105
88 -49 48 -92 87 -95 87 -3 0 -237 -232 -520 -515z"/>
</g>
</svg>
